# xmcd
#
# Track frame offsets:
#	150
#	15191
#	38402
#	58114
#	71544
#	86514
#	101484
#	119035
#	136587
#	149283
#	178398
#	199874
#	215399
#	230924
#	250619
#	270314
#	286528
#	302742
#	317756
#
# Disc length: 4434
#
# Revision: 3
# Processed by: cddbd v1.5.1PL0 Copyright (c) Steve Scherf et al.
# Submitted via: CDex 1.30Release
# Normalized: r2:DSETVAR1,TDELIM( - )
#
DISCID=07115013
DTITLE=Various Artist - Sittin' In With the Greats
DYEAR=2001
DGENRE=Blues
TTITLE0=Chicken shack - G instrumental
TTITLE1=That's all right - E vocal
TTITLE2=Every time you leave me - A vocal
TTITLE3=Every time you leave me - A instrumental
TTITLE4=Old blue ribbon - G vocal
TTITLE5=Old blue ribbon - G instrumental
TTITLE6=The thrill is gone - Am vocal
TTITLE7=The thrill is gone - Am instrumental
TTITLE8=Rough dried woman - C vocal
TTITLE9=It's my own fault - C vocal
TTITLE10=It's my own fault - C instrumental
TTITLE11=If you love me like you say - C vocal
TTITLE12=If you love me like you say - C instrumental
TTITLE13=A man and his blues - Dm vocal
TTITLE14=A man and his blues - Dm instrumental
TTITLE15=Got my mojo working - G vocal
TTITLE16=Got my mojo working - G instrumental
TTITLE17=Sweet home Chicago - E vocal
TTITLE18=Sweet home Chicago - E instrumental
EXTD=YEAR: 2001 ID3G:   0
EXTT0=
EXTT1=
EXTT2=
EXTT3=
EXTT4=
EXTT5=
EXTT6=
EXTT7=
EXTT8=
EXTT9=
EXTT10=
EXTT11=
EXTT12=
EXTT13=
EXTT14=
EXTT15=
EXTT16=
EXTT17=
EXTT18=
PLAYORDER=
